<?xml version="1.0" encoding="UTF-8"?>
<svg width="30px" height="30px" viewBox="0 0 30 30" version="1.1" xmlns="http://www.w3.org/2000/svg" xmlns:xlink="http://www.w3.org/1999/xlink">
    <!-- Generator: Sketch 52.2 (67145) - http://www.bohemiancoding.com/sketch -->
    <title>ICON/td-icn-twitter</title>
    <desc>Created with Sketch.</desc>
    <g id="Symbols" stroke="none" stroke-width="1" fill="none" fill-rule="evenodd">
        <g id="komponenten/footer" transform="translate(-122.000000, -688.000000)">
            <g id="ICON/td-icn-twitter" transform="translate(122.000000, 688.000000)">
                <g id="Group-2">
                    <circle id="Oval-5" fill="#00BDFF" fill-rule="nonzero" cx="15" cy="15" r="15"></circle>
                    <path d="M24,9.73606125 C23.2919214,10.040685 22.5835624,10.2309172 21.8757642,10.3073185 C22.675244,9.82760259 23.2159407,9.14994432 23.4977142,8.27434366 C22.7665049,8.70821878 21.9860905,9.00513236 21.1561904,9.16508438 C20.4251213,8.38845492 19.5268105,8 18.4606973,8 C17.4404249,8 16.5705719,8.35971682 15.8508579,9.07929066 C15.131284,9.79886449 14.7715672,10.6687175 14.7715672,11.68899 C14.7715672,11.9630532 14.8019875,12.2448268 14.8629684,12.5341703 C13.3552698,12.4580494 11.940935,12.0792673 10.6198238,11.397824 C9.29871263,10.7162405 8.17750641,9.80825695 7.25620517,8.67373307 C6.92116105,9.24470993 6.75363899,9.86531258 6.75363899,10.5354008 C6.75363899,11.1673585 6.90209578,11.7537558 7.19914954,12.2943123 C7.49606311,12.8348689 7.89587309,13.2726692 8.39843926,13.6077133 C7.80447193,13.584863 7.24863514,13.428696 6.73092889,13.1393525 L6.73092889,13.1850531 C6.73092889,14.075934 7.01073979,14.8581709 7.5703616,15.5321843 C8.12998341,16.2061978 8.83623959,16.6305403 9.68898996,16.8056324 C9.3692261,16.8893233 9.04553703,16.9312389 8.71820313,16.9312389 C8.50498049,16.9312389 8.27269258,16.9121736 8.02147958,16.8743234 C8.25755251,17.6128223 8.69156782,18.2199671 9.32352552,18.695898 C9.95548321,19.1719691 10.671272,19.4172943 11.4707518,19.4327147 C10.1307155,20.4832673 8.60409187,21.0086837 6.89088091,21.0086837 C6.56340683,21.0086837 6.26649325,20.9936838 6,20.9631233 C7.71321096,22.0670867 9.60151401,22.6189983 11.6650493,22.6189983 C12.9746653,22.6189983 14.2043754,22.4116635 15.3538991,21.9967134 C16.5038434,21.5817634 17.4859853,21.0259266 18.3007453,20.3290629 C19.1153651,19.6324795 19.8178363,18.8310371 20.4078784,17.924876 C20.9979206,17.018855 21.4375433,16.0728811 21.727027,15.086814 C22.0163706,14.1006067 22.1610424,13.1128574 22.1610424,12.1228651 C22.1610424,11.9096424 22.1572573,11.7498306 22.1495471,11.6431492 C22.8730462,11.1180131 23.4898638,10.4821302 24,9.73606125 L24,9.73606125 Z" id="Shape" fill="#FFFFFF"></path>
                </g>
            </g>
        </g>
    </g>
</svg>