<?xml version="1.0" encoding="UTF-8"?>
<svg width="30px" height="30px" viewBox="0 0 30 30" version="1.1" xmlns="http://www.w3.org/2000/svg" xmlns:xlink="http://www.w3.org/1999/xlink">
    <!-- Generator: Sketch 52.2 (67145) - http://www.bohemiancoding.com/sketch -->
    <title>ICON/td-icn-fb</title>
    <desc>Created with Sketch.</desc>
    <g id="Symbols" stroke="none" stroke-width="1" fill="none" fill-rule="evenodd">
        <g id="komponenten/footer" transform="translate(-163.000000, -688.000000)">
            <g id="ICON/td-icn-fb" transform="translate(163.000000, 688.000000)">
                <g id="Group-3">
                    <circle id="Oval-5-Copy" fill="#3B5998" fill-rule="nonzero" cx="15" cy="15" r="15"></circle>
                    <path d="M15.9613013,12.242649 L15.9613013,10.8640331 C15.9613013,10.6570441 15.9708345,10.4967677 15.9902583,10.3835612 C16.009563,10.2701165 16.0534156,10.1585784 16.1214586,10.0484702 C16.1893824,9.93848125 16.2994906,9.8624542 16.4515447,9.82038907 C16.6037179,9.77820478 16.8060595,9.75723181 17.0585694,9.75723181 L18.4370662,9.75723181 L18.4370662,7 L16.233235,7 C14.9579349,7 14.0421545,7.30255906 13.4855364,7.90767718 C12.9289183,8.51291447 12.6506688,9.40438526 12.6506688,10.582447 L12.6506688,12.242649 L11,12.242649 L11,15 L12.6505496,15 L12.6505496,23 L15.9613013,23 L15.9613013,15 L18.1651324,15 L18.4563708,12.242649 L15.9613013,12.242649 L15.9613013,12.242649 Z" id="Shape" fill="#FFFFFF"></path>
                </g>
            </g>
        </g>
    </g>
</svg>