<?xml version="1.0" encoding="UTF-8"?>
<svg width="30px" height="30px" viewBox="0 0 30 30" version="1.1" xmlns="http://www.w3.org/2000/svg" xmlns:xlink="http://www.w3.org/1999/xlink">
    <title>Group</title>
    <desc>Created with Sketch.</desc>
    <g id="Socials" stroke="none" stroke-width="1" fill="none" fill-rule="evenodd">
        <g id="Group" fill-rule="nonzero">
            <circle id="Oval" fill="#C13584" cx="15" cy="15" r="15"></circle>
            <path d="M15,6 C12.5588901,6 12.2480181,6.01019253 11.2899207,6.05605889 C10.3318233,6.10192525 9.6795017,6.24971687 9.10872027,6.47395243 C8.51755379,6.70328426 8.01302378,7.00906002 7.51359003,7.51359003 C7.01415629,8.01302378 6.70838052,8.51755379 6.47395243,9.10872027 C6.24971687,9.6795017 6.09682899,10.3369196 6.05605889,11.2899207 C6.01528879,12.2480181 6,12.5537939 6,15 C6,17.4411099 6.01019253,17.7468856 6.05605889,18.7100793 C6.10192525,19.6681767 6.24971687,20.3204983 6.47395243,20.8912797 C6.70328426,21.4824462 7.00906002,21.9869762 7.51359003,22.48641 C8.01302378,22.9858437 8.51755379,23.2967157 9.10872027,23.5260476 C9.6795017,23.7502831 10.3369196,23.8980747 11.2899207,23.9439411 C12.2480181,23.9898075 12.5537939,24 15,24 C17.4411099,24 17.7468856,23.9898075 18.7100793,23.9439411 C19.6681767,23.8980747 20.3204983,23.7502831 20.896376,23.5260476 C21.4875425,23.2967157 21.9869762,22.9858437 22.48641,22.48641 C22.9858437,21.9869762 23.2916195,21.4824462 23.5260476,20.8912797 C23.7451869,20.3204983 23.8980747,19.6681767 23.9439411,18.7100793 C23.9847112,17.7519819 24,17.4462061 24,15 C24,12.5588901 23.9898075,12.2531144 23.9439411,11.2899207 C23.8980747,10.3318233 23.7451869,9.6795017 23.5260476,9.10872027 C23.2967157,8.51755379 22.9858437,8.01302378 22.48641,7.51359003 C21.9869762,7.01415629 21.4875425,6.70838052 20.8912797,6.47395243 C20.315402,6.24971687 19.6630804,6.10192525 18.704983,6.05605889 C17.7468856,6.01019253 17.4411099,6 15,6 L15,6 Z M14.1947905,7.62061155 C14.4343148,7.62061155 14.6993205,7.62061155 15,7.62061155 C17.4003398,7.62061155 17.6857305,7.63080408 18.6336353,7.67157418 C19.5101925,7.71234428 19.984145,7.8601359 20.3052095,7.98244621 C20.7231031,8.14552661 21.0237826,8.3391846 21.3397508,8.65515289 C21.6557191,8.97112118 21.8493771,9.27180068 22.0124575,9.68969422 C22.1347678,10.0056625 22.2825595,10.4847112 22.3233296,11.3612684 C22.3640997,12.3091733 22.3742922,12.594564 22.3742922,14.9949037 C22.3742922,17.3952435 22.3640997,17.6806342 22.3233296,18.6285391 C22.2825595,19.5050963 22.1347678,19.9790487 22.0124575,20.3001133 C21.8493771,20.7180068 21.6557191,21.0186863 21.3397508,21.3346546 C21.0237826,21.6506229 20.7281993,21.8442809 20.3052095,22.0073613 C19.9892412,22.1296716 19.5101925,22.2774632 18.6336353,22.3182333 C17.6857305,22.3590034 17.4003398,22.3691959 15,22.3691959 C12.5996602,22.3691959 12.3142695,22.3590034 11.3663647,22.3182333 C10.4898075,22.2774632 10.015855,22.1296716 9.69479049,22.0073613 C9.27689694,21.8442809 8.97621744,21.6506229 8.66024915,21.3346546 C8.34428086,21.0186863 8.15062288,20.7180068 7.98754247,20.3001133 C7.86523216,19.984145 7.71744054,19.5050963 7.67667044,18.6285391 C7.63590034,17.6806342 7.62570781,17.3952435 7.62570781,14.9949037 C7.62570781,12.594564 7.63590034,12.3091733 7.67667044,11.3612684 C7.71744054,10.4847112 7.86523216,10.0107588 7.98754247,9.68969422 C8.15062288,9.27180068 8.34428086,8.97112118 8.66024915,8.65515289 C8.97621744,8.3391846 9.27689694,8.14552661 9.69479049,7.98244621 C10.0107588,7.8601359 10.4898075,7.71234428 11.3663647,7.67157418 C12.1970555,7.63080408 12.51812,7.62061155 14.1947905,7.62061155 L14.1947905,7.62061155 Z M19.8006795,9.11381653 C19.2044168,9.11381653 18.7202718,9.59796149 18.7202718,10.1942242 C18.7202718,10.790487 19.2044168,11.2746319 19.8006795,11.2746319 C20.3969422,11.2746319 20.8810872,10.790487 20.8810872,10.1942242 C20.8810872,9.59796149 20.3969422,9.11381653 19.8006795,9.11381653 L19.8006795,9.11381653 Z M15,10.3776897 C12.4467724,10.3776897 10.382786,12.4467724 10.382786,14.9949037 C10.382786,17.5481314 12.4518686,19.6121178 15,19.6121178 C17.5532276,19.6121178 19.617214,17.5430351 19.617214,14.9949037 C19.617214,12.4416761 17.5532276,10.3776897 15,10.3776897 L15,10.3776897 Z M15,11.9983012 C16.6562854,11.9983012 17.9966025,13.3386183 17.9966025,14.9949037 C17.9966025,16.6511891 16.6562854,17.9915062 15,17.9915062 C13.3437146,17.9915062 12.0033975,16.6511891 12.0033975,14.9949037 C12.0033975,13.3386183 13.3437146,11.9983012 15,11.9983012 Z" id="Shape" fill="#FFFFFF"></path>
        </g>
    </g>
</svg>