<?xml version="1.0" encoding="UTF-8"?>
<svg width="30px" height="30px" viewBox="0 0 30 30" version="1.1" xmlns="http://www.w3.org/2000/svg" xmlns:xlink="http://www.w3.org/1999/xlink">
    <!-- Generator: Sketch 52.2 (67145) - http://www.bohemiancoding.com/sketch -->
    <title>ICON/td-icn-linkedin</title>
    <desc>Created with Sketch.</desc>
    <g id="Symbols" stroke="none" stroke-width="1" fill="none" fill-rule="evenodd">
        <g id="komponenten/footer" transform="translate(-204.000000, -688.000000)">
            <g id="ICON/td-icn-linkedin" transform="translate(204.000000, 688.000000)">
                <g id="Group-4">
                    <circle id="Oval-5-Copy-2" fill="#00BDFF" fill-rule="nonzero" cx="15" cy="15" r="15"></circle>
                    <g id="Group" transform="translate(8.000000, 8.000000)" fill="#FFFFFF">
                        <path d="M0.18830458,4.21742947 L3.41093789,4.21742947 L3.41093789,12.993261 L0.18830458,12.993261 L0.18830458,4.21742947 Z M13.984282,5.02578552 C14.6613874,5.69566562 14.9997603,6.67706226 15,7.97008411 L15,12.9997826 L11.7870756,12.9997826 L11.7870756,8.30638284 C11.7870756,7.6865019 11.6552264,7.20085785 11.391648,6.84966807 C11.1279496,6.49836959 10.7161008,6.32272036 10.1562213,6.32272036 C9.74605052,6.32272036 9.40264338,6.42456648 9.12587999,6.62836742 C8.84899675,6.83195097 8.64259287,7.08422936 8.50570947,7.38541998 C8.43403147,7.56269962 8.39831233,7.80171736 8.39831233,8.10279928 L8.39831233,13 L5.18550778,13 C5.19857283,10.6443872 5.20504543,8.73463654 5.20504543,7.2704219 C5.20504543,5.80631595 5.20180913,4.93263491 5.19521667,4.64916139 L5.18538792,4.2240598 L8.39831233,4.2240598 L8.39831233,5.47197371 C8.52237041,5.29469407 8.64930519,5.13806625 8.77923655,5.00350329 C8.91588023,4.86187522 9.09986975,4.70839953 9.33096538,4.5430762 C9.56218087,4.37775288 9.84529698,4.24938546 10.1805534,4.15786525 C10.5159298,4.06634504 10.8887033,4.02058494 11.2988741,4.02058494 C12.4120406,4.02058494 13.3074163,4.35568803 13.984282,5.02578552 Z M1.81640204,0 C2.35674388,0 2.78980846,0.14314978 3.11523617,0.429558034 C3.44066388,0.715857594 3.60679383,1.07737329 3.61326642,1.5143225 C3.61973902,1.94529356 3.45540701,2.30539623 3.12015055,2.59463052 C2.78489408,2.88397351 2.34379869,3.02853631 1.79686439,3.02853631 L1.77732674,3.02853631 C1.24345748,3.02853631 0.813749071,2.88386482 0.48832136,2.59463052 C0.162773787,2.30539623 0,1.94518486 0,1.5143225 C0,1.07737329 0.167568302,0.715857594 0.502944631,0.429558034 C0.838320961,0.143258474 1.27606019,0 1.81640204,0 Z" id="Combined-Shape"></path>
                    </g>
                </g>
            </g>
        </g>
    </g>
</svg>