<?xml version="1.0" standalone="no"?>
<!DOCTYPE svg PUBLIC "-//W3C//DTD SVG 20010904//EN"
 "http://www.w3.org/TR/2001/REC-SVG-20010904/DTD/svg10.dtd">
<svg version="1.0" xmlns="http://www.w3.org/2000/svg"
 width="1000.000000pt" height="1000.000000pt" viewBox="0 0 1000.000000 1000.000000"
 preserveAspectRatio="xMidYMid meet">
<metadata>
Created by potrace 1.11, written by Peter Selinger 2001-2013
</metadata>
<g transform="translate(0.000000,1000.000000) scale(0.100000,-0.100000)"
fill="#000000" stroke="none">
<path d="M5087 9014 c-1 -1 -74 -4 -162 -8 -88 -3 -176 -8 -195 -11 -19 -2
-60 -7 -90 -10 -30 -4 -64 -9 -75 -11 -11 -2 -42 -6 -70 -9 -27 -4 -68 -10
-90 -15 -22 -5 -53 -11 -70 -14 -44 -8 -63 -12 -140 -31 -38 -9 -77 -18 -87
-20 -64 -14 -287 -86 -408 -132 -534 -205 -996 -502 -1397 -900 -81 -79 -93
-96 -93 -125 0 -64 58 -108 112 -84 20 9 140 112 222 192 9 8 158 130 206 167
180 141 444 303 666 408 335 159 607 245 1009 319 69 12 293 38 390 45 95 6
376 6 460 0 94 -6 206 -16 224 -20 9 -1 43 -6 76 -10 33 -3 107 -15 165 -27
58 -11 116 -22 130 -24 14 -3 52 -12 85 -21 33 -8 70 -17 82 -19 12 -2 95 -28
185 -58 613 -200 1148 -542 1596 -1019 l52 -56 23 23 c36 37 108 91 165 123
l53 29 -163 160 c-365 357 -785 641 -1218 823 -69 29 -138 59 -155 66 -82 35
-386 130 -515 161 -83 19 -335 64 -410 73 -52 7 -113 14 -135 16 -76 10 -421
24 -428 19z"/>
<path d="M3524 7541 c-2 -2 -4 -271 -4 -598 l0 -593 125 0 125 0 1 48 c0 26 1
85 0 132 l0 85 40 43 c22 23 44 40 48 38 4 -3 56 -82 116 -176 l108 -170 144
0 c113 0 143 3 137 13 -4 6 -41 64 -82 127 -41 63 -95 147 -120 185 -25 39
-65 101 -90 138 l-45 69 51 51 c27 29 75 79 107 112 31 33 84 87 116 121 l60
60 -149 3 c-117 1 -153 -1 -163 -12 -8 -8 -50 -54 -94 -103 -44 -48 -103 -113
-132 -144 l-52 -55 0 265 c1 146 0 288 0 315 l-1 51 -121 -1 c-66 0 -122 -2
-125 -4z"/>
<path d="M8306 7493 c-223 -46 -386 -244 -386 -468 1 -141 46 -251 145 -351
100 -100 218 -146 365 -140 299 12 513 286 453 580 -55 268 -309 434 -577 379z
m36 -186 c52 -33 60 -123 15 -165 -82 -77 -202 -17 -184 93 13 78 99 115 169
72z"/>
<path d="M1447 7238 c-57 -12 -111 -43 -155 -89 l-40 -42 0 44 c0 24 -1 52 -1
61 -1 15 -15 16 -123 15 l-123 -2 -1 -437 -1 -438 123 0 c122 0 124 0 124 23
1 12 2 137 3 277 2 235 4 258 22 289 32 54 67 75 128 75 63 -1 98 -21 124 -72
16 -33 18 -68 20 -297 1 -143 2 -268 2 -277 1 -16 14 -18 124 -18 l124 0 0
253 c0 282 4 318 39 364 63 83 212 55 242 -45 8 -26 12 -129 12 -306 l0 -266
126 0 125 0 -3 343 -3 342 -30 60 c-50 100 -132 147 -260 148 -86 1 -163 -27
-235 -84 -33 -27 -60 -45 -60 -40 0 15 -65 78 -97 94 -56 29 -141 39 -206 25z"/>
<path d="M4785 7242 c-96 -10 -195 -62 -261 -135 -131 -145 -157 -386 -60
-560 134 -238 508 -290 714 -99 23 22 42 42 42 45 0 3 -32 33 -70 67 l-70 62
-35 -26 c-50 -39 -102 -58 -163 -61 -101 -6 -180 42 -216 128 -14 34 -14 37 2
38 9 0 148 1 308 1 l291 0 -3 79 c-4 144 -43 252 -121 339 -81 90 -221 138
-358 122z m158 -234 c27 -19 77 -107 77 -135 0 -10 -44 -13 -186 -13 l-185 0
6 23 c22 75 79 141 133 153 15 3 32 7 37 8 21 5 89 -16 118 -36z"/>
<path d="M2775 7229 c-68 -11 -186 -50 -191 -63 -2 -6 9 -49 24 -96 33 -95 28
-93 126 -66 32 8 91 16 130 17 120 2 184 -37 200 -123 8 -44 9 -43 -84 -23
-119 26 -282 6 -360 -42 -80 -50 -124 -144 -116 -250 9 -144 118 -239 280
-247 101 -5 187 22 256 80 l32 27 -2 -24 c-6 -73 -13 -69 121 -69 l120 0 -4
313 c-4 337 -6 354 -60 433 -63 95 -159 136 -321 139 -56 1 -123 -2 -151 -6z
m253 -510 c41 -11 42 -13 42 -54 0 -112 -146 -190 -265 -141 -65 28 -80 113
-28 168 41 43 150 55 251 27z"/>
<path d="M6378 5955 c-2 -1 -23 -5 -48 -8 -280 -33 -489 -197 -575 -450 -36
-108 -44 -195 -44 -523 0 -337 7 -419 47 -534 72 -206 224 -339 458 -401 91
-24 341 -35 434 -19 30 5 69 12 85 14 61 10 162 49 226 86 119 71 200 169 246
301 21 61 26 98 30 210 6 145 0 173 -40 188 -12 5 -95 12 -184 15 -158 7 -162
6 -188 -16 -25 -22 -26 -27 -29 -138 -3 -129 -14 -161 -71 -207 -57 -46 -125
-62 -250 -59 -99 2 -116 5 -170 32 -73 36 -118 96 -135 181 -17 81 -17 640 0
713 35 154 172 234 375 217 181 -16 236 -73 242 -250 2 -54 8 -107 14 -118 17
-33 53 -39 192 -33 73 4 139 6 147 6 31 -1 68 20 79 44 15 35 7 233 -13 309
-61 227 -216 366 -470 422 -59 12 -348 27 -358 18z"/>
<path d="M983 5909 c-12 -4 -26 -17 -32 -28 -8 -13 -11 -296 -11 -901 l0 -881
24 -24 c24 -24 26 -24 200 -22 153 2 178 4 193 20 16 16 18 46 21 332 2 238 6
315 15 316 7 0 163 1 347 1 l334 1 23 23 c13 13 23 36 24 51 9 256 1 315 -44
332 -12 5 -161 9 -332 9 -170 0 -322 1 -337 1 l-28 1 0 180 c0 180 0 180 23
181 12 0 186 1 387 1 l364 1 23 23 c16 16 23 36 24 66 1 48 1 233 0 261 -1 10
-11 28 -24 41 l-23 23 -574 0 c-316 0 -585 -3 -597 -8z"/>
<path d="M2590 5899 c-21 -13 -30 -27 -31 -46 -1 -36 -1 -1724 0 -1741 1 -7
12 -24 25 -37 l23 -23 584 -1 c439 0 588 3 600 12 32 24 37 54 38 199 0 141
-1 147 -24 172 l-24 26 -391 0 -390 0 0 170 0 170 333 0 c182 0 341 3 353 6
41 11 50 49 48 189 -2 179 -1 173 -30 191 -23 15 -63 17 -365 17 l-339 0 0
152 0 153 366 0 367 0 24 25 c24 23 25 30 25 153 0 187 0 183 -25 208 l-23 23
-557 0 c-522 0 -559 -1 -587 -18z"/>
<path d="M4051 5894 l-26 -22 0 -161 c1 -221 -20 -205 268 -208 122 -1 231 -2
242 -2 20 -1 20 -7 18 -688 -2 -455 1 -697 8 -714 17 -43 47 -49 221 -48 155
1 162 2 185 25 17 17 23 35 24 71 0 26 1 342 1 701 l0 652 21 1 c12 0 120 1
240 1 194 0 220 2 240 18 21 17 22 26 23 177 1 165 -4 194 -40 210 -13 6 -287
10 -710 10 l-688 0 -27 -23z"/>
<path d="M7605 5910 c-52 -20 -50 23 -50 -924 l-1 -881 28 -28 27 -27 170 1
c238 3 216 -38 216 391 l0 341 315 0 315 0 5 -347 5 -347 25 -19 c22 -17 44
-19 180 -19 165 0 201 7 218 43 11 24 17 1726 7 1769 -12 46 -46 54 -221 54
-140 0 -165 -2 -185 -18 l-24 -18 -5 -338 -5 -338 -313 0 c-171 0 -313 2 -313
5 -1 3 -2 152 -3 332 -2 410 19 372 -209 374 -89 1 -171 -2 -182 -6z"/>
<path d="M3077 3723 c-3 -5 -5 -272 -5 -595 0 -430 3 -588 12 -590 10 -4 223
-3 236 1 3 0 5 117 5 259 -1 141 3 273 8 293 5 21 24 52 43 70 27 26 43 33 86
36 69 5 114 -18 142 -72 20 -37 21 -59 23 -305 1 -146 3 -270 3 -275 0 -7 45
-11 123 -10 l122 0 1 315 c0 211 -3 330 -11 360 -38 144 -128 213 -280 214
-68 1 -88 -3 -137 -27 -31 -15 -70 -43 -87 -62 -17 -19 -32 -35 -33 -35 -2 0
-3 97 -3 215 l0 215 -122 0 c-67 0 -124 -3 -126 -7z"/>
<path d="M1445 3555 c-46 -24 -80 -80 -79 -131 3 -114 284 -602 521 -904 198
-253 472 -523 733 -721 354 -269 750 -478 1165 -615 187 -61 375 -111 495
-130 19 -3 51 -9 70 -14 19 -4 76 -13 125 -20 50 -6 104 -13 120 -16 17 -2 66
-6 110 -9 44 -3 94 -8 110 -10 73 -11 444 -4 605 10 387 35 775 129 1140 274
117 47 380 174 462 223 171 103 351 219 403 260 6 5 60 48 121 96 172 135 195
158 201 201 7 52 -29 94 -80 94 -30 0 -54 -14 -154 -95 -381 -306 -832 -548
-1274 -681 -133 -41 -357 -95 -456 -111 -253 -41 -381 -51 -663 -51 -217 0
-386 8 -453 21 -12 2 -41 6 -64 9 -69 8 -115 15 -169 26 -28 5 -63 12 -79 15
-16 3 -65 14 -109 25 -45 11 -90 21 -100 24 -53 12 -209 61 -290 90 -537 192
-1023 501 -1418 901 -180 184 -272 294 -440 529 -100 140 -230 374 -348 627
-12 27 -35 58 -52 70 -39 27 -113 34 -153 13z"/>
<path d="M4375 3418 c-91 -8 -174 -28 -232 -55 l-31 -14 31 -92 c17 -51 31
-93 31 -93 1 -1 40 8 89 21 198 50 322 9 340 -112 6 -38 10 -37 -68 -18 -88
21 -254 14 -325 -13 -108 -42 -170 -133 -170 -248 0 -147 85 -242 240 -269
107 -19 227 11 293 73 l27 26 1 -30 c1 -16 1 -35 0 -41 -2 -16 -8 -15 119 -17
58 -2 110 1 115 5 12 9 12 561 1 618 -13 64 -56 140 -104 181 -26 22 -53 40
-60 40 -7 0 -26 7 -41 15 -16 8 -57 17 -92 21 -35 3 -66 7 -69 8 -3 1 -45 -2
-95 -6z m202 -518 c27 -10 31 -16 31 -48 0 -109 -124 -185 -246 -151 -104 29
-109 154 -9 199 47 21 167 22 224 0z"/>
<path d="M5497 3420 c-56 -15 -108 -44 -146 -84 -19 -20 -37 -36 -40 -36 -4 0
-4 25 -3 55 3 48 1 55 -15 56 -82 2 -226 0 -230 -5 -4 -4 -8 -997 -4 -1114 1
-22 3 -22 125 -20 l125 2 0 125 c-1 69 0 153 0 185 l1 60 31 -32 c32 -32 116
-79 159 -87 215 -42 412 92 464 315 14 60 16 214 3 265 -48 187 -185 309 -359
320 -40 2 -90 0 -111 -5z m112 -229 c77 -40 121 -127 116 -232 -3 -77 -28
-132 -79 -177 -55 -48 -117 -61 -187 -41 -132 40 -193 213 -125 354 54 108
170 149 275 96z"/>
<path d="M6571 3409 c-58 -20 -69 -27 -123 -78 l-38 -35 0 57 c0 64 11 58
-110 58 -36 1 -82 0 -102 0 l-38 -1 0 -569 0 -569 125 0 125 0 0 185 0 185 39
-35 c52 -47 91 -66 164 -81 167 -34 349 60 421 218 22 49 43 124 44 156 7 202
-27 317 -123 413 -103 103 -256 141 -384 96z m134 -216 c80 -40 118 -106 121
-211 5 -144 -73 -241 -199 -248 -125 -6 -219 98 -218 241 1 177 154 289 296
218z"/>
<path d="M7540 3413 c-270 -69 -402 -403 -266 -671 28 -56 105 -134 166 -168
127 -72 306 -78 443 -15 63 29 147 95 147 116 0 6 -30 38 -67 71 l-68 61 -45
-34 c-69 -51 -136 -65 -229 -48 -71 12 -154 105 -138 152 1 5 135 8 297 8
l295 0 1 80 c4 225 -115 400 -306 450 -63 17 -162 16 -230 -2z m200 -208 c38
-20 81 -84 93 -141 4 -20 1 -21 -179 -21 -203 0 -197 -2 -169 65 43 102 159
147 255 97z"/>
<path d="M8685 3417 c-58 -19 -82 -34 -132 -80 l-45 -41 4 47 c3 25 2 51 -2
57 -6 10 -108 15 -216 11 l-32 -1 2 -437 1 -438 123 0 c116 -1 122 0 123 20 0
11 1 128 1 260 1 304 12 343 98 373 77 27 150 2 184 -64 19 -36 21 -58 23
-299 1 -143 2 -267 2 -275 1 -13 20 -15 119 -14 64 1 120 2 124 3 13 2 6 621
-7 671 -25 93 -77 159 -153 192 -55 25 -164 32 -217 15z"/>
</g>
</svg>
